<svg width="18" height="19" viewBox="0 0 18 19" fill="none" xmlns="http://www.w3.org/2000/svg">
<g clip-path="url(#clip0_38_3642)">
<path d="M3 5.75H15" stroke="#800000" stroke-width="1.5" stroke-linecap="round" stroke-linejoin="round"/>
<path d="M7.5 8.75V13.25" stroke="#800000" stroke-width="1.5" stroke-linecap="round" stroke-linejoin="round"/>
<path d="M10.5 8.75V13.25" stroke="#800000" stroke-width="1.5" stroke-linecap="round" stroke-linejoin="round"/>
<path d="M3.75 5.75L4.5 14.75C4.5 15.1478 4.65804 15.5294 4.93934 15.8107C5.22064 16.092 5.60218 16.25 6 16.25H12C12.3978 16.25 12.7794 16.092 13.0607 15.8107C13.342 15.5294 13.5 15.1478 13.5 14.75L14.25 5.75" stroke="#800000" stroke-width="1.5" stroke-linecap="round" stroke-linejoin="round"/>
<path d="M6.75 5.75V3.5C6.75 3.30109 6.82902 3.11032 6.96967 2.96967C7.11032 2.82902 7.30109 2.75 7.5 2.75H10.5C10.6989 2.75 10.8897 2.82902 11.0303 2.96967C11.171 3.11032 11.25 3.30109 11.25 3.5V5.75" stroke="#800000" stroke-width="1.5" stroke-linecap="round" stroke-linejoin="round"/>
</g>
<defs>
<clipPath id="clip0_38_3642">
<rect width="18" height="18" fill="white" transform="translate(0 0.5)"/>
</clipPath>
</defs>
</svg>
