<svg width="80" height="81" viewBox="0 0 80 81" fill="none" xmlns="http://www.w3.org/2000/svg">
<circle cx="40" cy="40.5" r="40" fill="#F6F4FA"/>
<g clip-path="url(#clip0_98_3992)">
<path d="M34.6665 34.3333C34.6665 35.7478 35.2284 37.1044 36.2286 38.1046C37.2288 39.1048 38.5853 39.6667 39.9998 39.6667C41.4143 39.6667 42.7709 39.1048 43.7711 38.1046C44.7713 37.1044 45.3332 35.7478 45.3332 34.3333C45.3332 32.9188 44.7713 31.5623 43.7711 30.5621C42.7709 29.5619 41.4143 29 39.9998 29C38.5853 29 37.2288 29.5619 36.2286 30.5621C35.2284 31.5623 34.6665 32.9188 34.6665 34.3333Z" stroke="#702DFF" stroke-width="2" stroke-linecap="round" stroke-linejoin="round"/>
<path d="M32 53V50.3333C32 48.9188 32.5619 47.5623 33.5621 46.5621C34.5623 45.5619 35.9188 45 37.3333 45H42.6667C44.0812 45 45.4377 45.5619 46.4379 46.5621C47.4381 47.5623 48 48.9188 48 50.3333V53" stroke="#702DFF" stroke-width="2" stroke-linecap="round" stroke-linejoin="round"/>
</g>
<defs>
<clipPath id="clip0_98_3992">
<rect width="32" height="32" fill="white" transform="translate(24 25)"/>
</clipPath>
</defs>
</svg>
