<svg width="590" height="514" viewBox="0 0 590 514" fill="none" xmlns="http://www.w3.org/2000/svg">
<g clip-path="url(#clip0_95_3278)">
<path d="M342.358 410.354C282.502 413.348 222.645 410.986 162.788 403.277C157.842 402.631 153.054 397.923 152.222 392.87C138.021 305.51 138.15 218.151 152.609 130.799C153.455 125.746 158.244 121.03 163.176 120.369C222.853 112.531 282.53 110.127 342.201 113.17C347.133 113.422 351.498 118.051 351.864 123.391C358.057 215.639 358.107 307.893 352.029 400.141C351.663 405.481 347.297 410.103 342.351 410.354H342.358Z" stroke="#BDB7CB" stroke-width="1.5" stroke-miterlimit="10"/>
<path d="M242.459 177.095C218.803 177.705 195.147 178.745 171.491 180.231C166.236 180.554 162.315 176.642 162.831 171.51C166.265 136.885 171.641 102.26 178.96 67.6351C180.064 62.5103 184.666 57.572 189.125 56.7538C209.319 53.0644 229.519 50.4661 249.72 48.9445C254.179 48.6071 257.555 52.7917 257.24 58.1821C254.982 94.4868 253.326 130.784 252.265 167.089C252.114 172.479 247.706 176.965 242.459 177.102V177.095Z" stroke="#BDB7CB" stroke-width="1.5" stroke-miterlimit="10"/>
<path d="M319.642 429.512C297.792 430.215 275.943 430.079 254.093 429.103C249.262 428.887 245.011 424.265 244.681 418.903C242.502 382.706 241.083 346.509 240.423 310.312C240.323 304.943 244.652 300.601 250.014 300.651C274.208 300.873 298.402 300.902 322.595 300.744C327.964 300.708 332.301 305.08 332.222 310.463C331.713 346.767 330.609 383.079 328.925 419.391C328.66 424.774 324.48 429.354 319.649 429.512H319.642Z" stroke="#BDB7CB" stroke-width="1.5" stroke-miterlimit="10"/>
<path d="M358.215 338.743C343.749 339.174 329.283 339.468 314.824 339.619C309.556 339.676 305.269 335.276 305.298 329.864C305.448 306.702 305.52 283.539 305.513 260.377C305.513 254.965 309.914 250.544 315.305 250.558C330.079 250.58 344.853 250.63 359.62 250.702C365.011 250.73 369.455 255.109 369.462 260.42C369.498 283.202 369.075 305.984 368.208 328.766C368 334.077 363.484 338.585 358.215 338.743Z" stroke="#BDB7CB" stroke-width="1.5" stroke-miterlimit="10"/>
<path d="M170.358 237.76C155.613 238.026 140.875 238.349 126.129 238.715C120.753 238.837 116.487 234.918 116.745 229.994C117.821 208.863 119.935 187.725 123.082 166.594C123.821 161.67 128.688 157.119 133.806 156.523C147.871 154.916 161.928 153.516 175.993 152.332C181.111 151.894 184.889 155.842 184.43 161.067C182.423 183.411 181.075 205.755 180.394 228.106C180.237 233.332 175.742 237.674 170.366 237.767L170.358 237.76Z" stroke="#BDB7CB" stroke-width="1.5" stroke-miterlimit="10"/>
<path d="M424.072 503.061C413.025 506.952 401.971 510.354 390.925 513.268C386.911 514.337 384.66 510.899 385.864 505.71C391.097 483.516 395.62 461.33 399.419 439.137C400.294 433.947 404.903 429.182 409.713 428.485C422.86 426.562 436.014 424.308 449.161 421.738C453.971 420.812 456.86 423.985 455.491 428.859C449.706 449.753 442.824 470.647 434.853 491.541C432.975 496.408 428.086 501.633 424.072 503.061Z" stroke="#BDB7CB" stroke-width="1.5" stroke-miterlimit="10"/>
<path d="M429.118 112.237C415.735 110.192 402.359 108.447 388.975 107.005C384.079 106.481 379.584 101.787 378.939 96.5181C376.129 73.9659 372.753 51.4137 368.81 28.8543C367.907 23.5859 370.523 19.875 374.667 20.7004C386.072 22.9471 397.47 25.653 408.875 28.8256C413.018 29.9883 417.728 35.1132 419.276 40.116C425.821 61.5844 431.427 83.0528 436.079 104.521C437.176 109.524 434.014 112.969 429.126 112.237H429.118Z" stroke="#BDB7CB" stroke-width="1.5" stroke-miterlimit="10"/>
<path d="M523.097 146.36C513.699 144.336 504.301 142.434 494.903 140.654C489.892 139.721 484.86 135.105 483.62 130.354C479.77 115.718 475.283 101.09 470.165 86.455C468.523 81.7034 470.781 78.9185 475.283 80.3469C483.77 83.0026 492.258 85.8449 500.745 88.8667C505.24 90.4889 510.717 95.4487 512.788 99.8199C519.14 113.343 524.695 126.873 529.469 140.395C531.025 144.766 528.107 147.429 523.104 146.367L523.097 146.36Z" stroke="#BDB7CB" stroke-width="1.5" stroke-miterlimit="10"/>
<path d="M236.144 506.062C228.251 505.042 220.366 503.808 212.473 502.358C208.294 501.583 203.964 496.609 202.896 491.398C199.663 475.298 196.774 459.191 194.222 443.092C193.384 437.881 196.66 434.113 201.448 434.658C210.43 435.699 219.412 436.582 228.394 437.314C233.183 437.701 237.448 442.345 237.893 447.7C239.305 464.216 240.903 480.732 242.696 497.247C243.255 502.602 240.323 506.607 236.144 506.062Z" stroke="#BDB7CB" stroke-width="1.5" stroke-miterlimit="10"/>
<path d="M264.086 70.1115C255.333 70.4704 246.574 71.0015 237.821 71.705C233.147 72.071 229.792 68.0731 230.387 62.74C232.187 46.296 234.208 29.8448 236.452 13.4008C237.197 8.07492 241.118 3.22282 245.126 2.72038C252.703 1.76575 260.28 1.04799 267.857 0.552727C271.871 0.287153 274.975 4.57222 274.767 9.96983C274.065 26.6436 273.434 43.3173 272.875 59.991C272.71 65.3958 268.753 69.9177 264.086 70.1115Z" stroke="#BDB7CB" stroke-width="1.5" stroke-miterlimit="10"/>
<path d="M76.2005 231.674C61.4908 232.334 46.7812 233.059 32.0715 233.848C26.7023 234.121 22.6163 230.863 23.1109 226.592C25.2184 208.246 28.9174 189.9 34.2077 171.553C35.4478 167.283 40.7166 162.926 45.7919 161.907C59.7274 159.165 73.6629 156.653 87.5984 154.37C92.6736 153.523 95.9855 156.767 95.0536 161.533C91.0106 181.889 88.1862 202.245 86.5733 222.601C86.2005 227.367 81.5769 231.444 76.2077 231.666L76.2005 231.674Z" stroke="#BDB7CB" stroke-width="1.5" stroke-miterlimit="10"/>
<path d="M75.9139 407.692C62.7598 404.16 49.5985 400.299 36.4444 396.121C31.663 394.578 26.0501 389.963 24.1218 385.922C15.8996 368.545 9.4193 351.167 4.68811 333.783C3.577 329.742 7.07521 327.05 12.3297 327.775C26.724 329.807 41.1254 331.687 55.5197 333.403C60.7813 334.02 65.6989 338.255 66.5662 342.841C70.2795 362.444 75.3619 382.053 81.8136 401.655C83.3046 406.249 80.6953 408.984 75.9067 407.684L75.9139 407.692Z" stroke="#BDB7CB" stroke-width="1.5" stroke-miterlimit="10"/>
<path d="M130.645 472.147C118.882 468.12 107.118 463.656 95.3548 458.753C91.0824 456.952 85.5985 451.82 83.2831 447.441C73.4336 428.607 65.0896 409.773 58.2508 390.939C56.6451 386.553 59.491 383.912 64.4659 385.01C78.0716 388.068 91.6845 390.846 105.29 393.358C110.265 394.262 115.24 398.928 116.43 403.78C121.563 424.502 127.835 445.231 135.233 465.953C136.939 470.798 134.918 473.626 130.638 472.147H130.645Z" stroke="#BDB7CB" stroke-width="1.5" stroke-miterlimit="10"/>
<path d="M268.28 176.599C266.459 176.621 264.645 176.65 262.824 176.671C260.566 176.707 258.76 174.841 258.81 172.515C258.896 168.819 258.982 165.122 259.075 161.433C259.133 159.115 261.011 157.169 263.233 157.126C265.025 157.09 266.817 157.062 268.609 157.033C270.832 156.997 272.624 158.878 272.595 161.21C272.538 164.914 272.488 168.618 272.437 172.321C272.409 174.647 270.538 176.571 268.272 176.599H268.28Z" stroke="#BDB7CB" stroke-width="1.5" stroke-miterlimit="10"/>
<path d="M267.943 201.951C266.1 201.965 264.258 201.987 262.416 202.001C260.122 202.023 258.28 200.149 258.315 197.824C258.373 194.127 258.444 190.431 258.516 186.741C258.559 184.416 260.459 182.492 262.724 182.456C264.545 182.428 266.373 182.406 268.194 182.385C270.459 182.356 272.294 184.244 272.265 186.569C272.222 190.273 272.186 193.977 272.151 197.68C272.129 200.006 270.237 201.922 267.943 201.944V201.951Z" stroke="#BDB7CB" stroke-width="1.5" stroke-miterlimit="10"/>
<path d="M226.494 246.503C224.645 246.517 222.803 246.524 220.953 246.539C220.158 246.539 219.512 245.9 219.52 245.117C219.541 242.856 219.57 240.595 219.598 238.335C219.606 237.545 220.272 236.892 221.061 236.885C222.903 236.863 224.745 236.849 226.595 236.827C227.391 236.82 228.036 237.459 228.021 238.248C227.993 240.517 227.971 242.785 227.95 245.053C227.95 245.842 227.283 246.496 226.487 246.503H226.494Z" stroke="#BDB7CB" stroke-width="1.5" stroke-miterlimit="10"/>
<path d="M64.9246 153.222C63.197 153.559 61.4622 153.896 59.7275 154.234C58.9819 154.384 58.5232 153.968 58.7167 153.308C59.2758 151.42 59.8422 149.525 60.43 147.637C60.6379 146.977 61.4049 146.31 62.1504 146.152C63.8637 145.786 65.5769 145.42 67.2902 145.061C68.0285 144.903 68.473 145.326 68.2723 145.994C67.706 147.91 67.154 149.827 66.6163 151.75C66.43 152.418 65.6629 153.085 64.9174 153.229L64.9246 153.222Z" stroke="#BDB7CB" stroke-width="1.5" stroke-miterlimit="10"/>
<path d="M381.111 313.592C379.283 313.643 377.448 313.686 375.62 313.736C374.832 313.757 374.208 313.126 374.23 312.343C374.301 310.09 374.366 307.843 374.423 305.589C374.445 304.807 375.111 304.147 375.9 304.132C377.735 304.096 379.57 304.053 381.412 304.017C382.208 304.003 382.832 304.627 382.81 305.41C382.746 307.649 382.674 309.896 382.595 312.135C382.566 312.918 381.9 313.571 381.111 313.592Z" stroke="#BDB7CB" stroke-width="1.5" stroke-miterlimit="10"/>
<path d="M487.376 291.679C485.534 291.744 483.692 291.808 481.849 291.873C481.054 291.901 480.437 291.334 480.466 290.617C480.566 288.549 480.652 286.489 480.724 284.422C480.753 283.705 481.419 283.102 482.215 283.08C484.057 283.037 485.907 282.994 487.749 282.944C488.545 282.922 489.175 283.489 489.147 284.2C489.068 286.245 488.975 288.284 488.874 290.33C488.839 291.04 488.158 291.65 487.362 291.679H487.376Z" stroke="#BDB7CB" stroke-width="1.5" stroke-miterlimit="10"/>
<path d="M400.946 192.735C399.133 192.649 397.319 192.57 395.513 192.491C394.731 192.455 394.05 191.795 394.007 191.019C393.878 188.794 393.742 186.569 393.599 184.344C393.548 183.569 394.143 182.966 394.925 183.002C396.724 183.095 398.531 183.189 400.33 183.282C401.111 183.325 401.785 183.992 401.842 184.76C401.993 186.971 402.143 189.189 402.28 191.4C402.33 192.168 401.728 192.771 400.946 192.735Z" stroke="#BDB7CB" stroke-width="1.5" stroke-miterlimit="10"/>
<path d="M388.538 192.189C386.724 192.117 384.91 192.038 383.097 191.974C382.315 191.945 381.642 191.278 381.606 190.495C381.491 188.256 381.376 186.009 381.247 183.77C381.204 182.987 381.806 182.377 382.581 182.413C384.38 182.492 386.186 182.578 387.986 182.664C388.76 182.7 389.441 183.368 389.484 184.143C389.62 186.375 389.749 188.608 389.871 190.84C389.914 191.615 389.312 192.225 388.523 192.196L388.538 192.189Z" stroke="#BDB7CB" stroke-width="1.5" stroke-miterlimit="10"/>
<path d="M279.498 283.547C277.656 283.547 275.806 283.547 273.964 283.539C273.168 283.539 272.516 282.879 272.509 282.082C272.509 279.785 272.495 277.496 272.495 275.199C272.495 274.402 273.147 273.749 273.943 273.749C275.792 273.749 277.634 273.749 279.484 273.749C280.28 273.749 280.932 274.402 280.932 275.206C280.932 277.503 280.932 279.8 280.939 282.089C280.939 282.886 280.287 283.547 279.491 283.539L279.498 283.547Z" stroke="#BDB7CB" stroke-width="1.5" stroke-miterlimit="10"/>
<path d="M104.287 300.73C102.452 300.644 100.617 300.565 98.7743 300.479C97.9786 300.443 97.2905 299.826 97.2475 299.115C97.1113 297.069 96.9966 295.024 96.8819 292.978C96.846 292.267 97.4625 291.708 98.2582 291.729C100.101 291.794 101.943 291.858 103.778 291.923C104.574 291.952 105.255 292.562 105.29 293.279C105.398 295.347 105.513 297.414 105.642 299.481C105.685 300.199 105.075 300.759 104.28 300.723L104.287 300.73Z" stroke="#BDB7CB" stroke-width="1.5" stroke-miterlimit="10"/>
<path d="M324.222 356.565C322.43 356.601 320.645 356.63 318.853 356.651C318.079 356.666 317.462 356.02 317.477 355.216C317.52 352.926 317.556 350.636 317.592 348.339C317.606 347.543 318.251 346.882 319.025 346.868C320.824 346.846 322.624 346.818 324.43 346.789C325.204 346.775 325.828 347.421 325.814 348.217C325.764 350.507 325.713 352.79 325.663 355.079C325.642 355.876 324.997 356.544 324.222 356.558V356.565Z" stroke="#BDB7CB" stroke-width="1.5" stroke-miterlimit="10"/>
<path d="M258.165 366.377C256.373 366.341 254.573 366.298 252.781 366.248C250.552 366.19 248.659 364.245 248.581 361.927C248.459 358.237 248.344 354.555 248.236 350.866C248.165 348.548 249.964 346.696 252.229 346.739C254.05 346.775 255.871 346.811 257.692 346.839C259.957 346.875 261.842 348.806 261.892 351.132C261.964 354.828 262.043 358.525 262.129 362.221C262.179 364.547 260.401 366.413 258.172 366.363L258.165 366.377Z" stroke="#BDB7CB" stroke-width="1.5" stroke-miterlimit="10"/>
<path d="M258.925 391.678C257.169 391.628 255.412 391.578 253.663 391.52C251.484 391.449 249.62 389.489 249.52 387.178C249.369 383.496 249.219 379.806 249.083 376.117C248.997 373.799 250.746 371.961 252.968 372.019C254.753 372.069 256.538 372.112 258.33 372.155C260.552 372.205 262.416 374.143 262.473 376.469C262.566 380.165 262.667 383.862 262.774 387.558C262.839 389.884 261.111 391.743 258.932 391.678H258.925Z" stroke="#BDB7CB" stroke-width="1.5" stroke-miterlimit="10"/>
<path d="M47.9714 420.317C46.3944 419.685 44.8101 419.054 43.2331 418.408C41.2761 417.604 38.8101 415.515 37.7851 413.778C36.1578 411.008 34.5736 408.237 33.0395 405.467C32.0718 403.73 32.9607 402.904 34.9894 403.622C36.6238 404.203 38.251 404.777 39.8854 405.352C41.9141 406.055 44.3084 408.094 45.2331 409.895C46.6954 412.752 48.208 415.609 49.7564 418.465C50.7313 420.26 49.9356 421.107 47.9786 420.317H47.9714Z" stroke="#BDB7CB" stroke-width="1.5" stroke-miterlimit="10"/>
<path d="M59.6632 439.711C58.1578 439.001 56.6525 438.29 55.1543 437.565C53.2905 436.668 50.7958 434.493 49.6417 432.756C47.8066 429.985 46.0216 427.215 44.2797 424.444C43.1829 422.707 43.8926 421.961 45.8424 422.779C47.4052 423.439 48.9679 424.093 50.5306 424.739C52.4732 425.542 54.9034 427.66 55.9428 429.454C57.6059 432.311 59.3048 435.168 61.0539 438.024C62.1507 439.826 61.5342 440.587 59.6704 439.704L59.6632 439.711Z" stroke="#BDB7CB" stroke-width="1.5" stroke-miterlimit="10"/>
<path d="M530.43 95.9941C528.889 95.3266 527.348 94.6663 525.8 94.0131C523.878 93.202 521.463 91.0631 520.416 89.24C518.739 86.3473 517.018 83.4547 515.255 80.5621C514.151 78.739 514.731 77.971 516.574 78.861C518.058 79.5716 519.534 80.2966 521.018 81.0215C522.86 81.9259 525.334 84.1223 526.502 85.888C528.351 88.6944 530.158 91.5009 531.921 94.3074C533.033 96.0731 532.352 96.8196 530.43 95.9941Z" stroke="#BDB7CB" stroke-width="1.5" stroke-miterlimit="10"/>
<path d="M541.427 115.395C539.814 114.807 538.201 114.218 536.581 113.644C534.574 112.926 532.186 110.866 531.254 109.043C529.771 106.151 528.244 103.258 526.667 100.365C525.685 98.5422 526.444 97.6952 528.38 98.4919C529.943 99.1307 531.498 99.7696 533.061 100.423C534.996 101.234 537.455 103.351 538.495 105.11C540.143 107.916 541.749 110.723 543.312 113.529C544.294 115.288 543.441 116.127 541.427 115.395Z" stroke="#BDB7CB" stroke-width="1.5" stroke-miterlimit="10"/>
<path d="M268.739 150.674C266.954 150.702 265.176 150.738 263.391 150.774C261.176 150.817 259.412 148.958 259.484 146.64C259.592 142.943 259.706 139.247 259.828 135.557C259.907 133.239 261.749 131.287 263.921 131.229C265.67 131.186 267.42 131.15 269.169 131.114C271.341 131.071 273.083 132.945 273.04 135.278C272.968 138.981 272.903 142.685 272.839 146.389C272.803 148.714 270.954 150.645 268.739 150.681V150.674Z" stroke="#BDB7CB" stroke-width="1.5" stroke-miterlimit="10"/>
<path d="M429.663 409.407C392.853 414.819 356.043 418.056 319.233 419.126C314.33 419.269 310.416 414.919 310.516 409.515C311.771 350.651 312.272 291.787 312.014 232.93C311.993 227.525 316.351 223.118 321.713 223.161C361.892 223.434 402.079 224.259 442.258 225.644C447.613 225.838 452.215 230.102 452.409 235.104C454.487 289.719 450.466 344.327 440.337 398.942C439.398 403.945 434.559 408.682 429.663 409.414V409.407Z" stroke="#BDB7CB" stroke-width="1.5" stroke-miterlimit="10"/>
<path d="M263.047 454.562C228.065 453.083 193.09 448.934 158.108 442.123C153.455 441.204 148.61 436.323 147.412 431.335C134.516 376.935 127.878 322.536 127.484 268.129C127.448 263.141 131.893 259.035 137.283 259.006C177.699 258.856 218.108 258.762 258.524 258.726C263.914 258.726 268.323 263.141 268.33 268.538C268.387 327.374 269.348 386.209 271.212 445.037C271.369 450.442 267.699 454.756 263.047 454.555V454.562Z" stroke="#BDB7CB" stroke-width="1.5" stroke-miterlimit="10"/>
<path d="M202.538 289.655C162.23 289.095 121.921 288.155 81.613 286.834C76.2367 286.647 71.6345 282.678 71.484 278.027C69.8353 227.245 76.5664 176.463 91.6847 125.681C93.0826 121.03 98.251 116.278 103.068 115.173C139.269 106.99 175.47 101.162 211.67 97.681C216.488 97.2144 220 101.227 219.513 106.545C214.036 164.405 211.592 222.264 212.194 280.123C212.244 285.442 207.921 289.734 202.545 289.655H202.538Z" stroke="#BDB7CB" stroke-width="1.5" stroke-miterlimit="10"/>
<path d="M408.215 179.944C384.559 178.523 360.903 177.532 337.247 176.98C331.993 176.858 327.606 172.372 327.47 166.981C326.531 130.641 325.061 94.3002 323.061 57.9668C322.781 52.5764 326.186 48.356 330.652 48.6646C350.846 50.0427 371.047 52.5046 391.247 56.0504C395.706 56.84 400.28 61.7638 401.341 66.9102C408.409 101.664 413.591 136.419 416.903 171.173C417.405 176.319 413.462 180.26 408.215 179.951V179.944Z" stroke="#BDB7CB" stroke-width="1.5" stroke-miterlimit="10"/>
<path d="M495.455 457.16C476.179 465.594 456.91 472.829 437.634 478.865C433.376 480.215 431.226 477.193 432.774 472.24C443.341 438.886 451.384 405.524 456.896 372.169C457.706 367.21 462.531 362.695 467.699 362.085C490.953 359.314 514.215 355.991 537.47 352.122C542.631 351.282 545.921 354.082 544.66 358.395C536.208 387.544 523.885 416.685 507.685 445.834C505.269 450.14 499.706 455.279 495.455 457.16Z" stroke="#BDB7CB" stroke-width="1.5" stroke-miterlimit="10"/>
<path d="M94.7668 370.662C71.7847 367.131 48.8026 362.975 25.8206 358.209C20.7381 357.132 15.3976 352.876 14.093 348.784C5.32595 321.093 0.809817 293.402 0.537416 265.717C0.494405 261.626 4.98186 258.217 10.3654 258.152C34.6808 257.908 58.9962 257.693 83.3116 257.513C88.7023 257.463 93.0679 261.36 93.0966 266.177C93.2829 298.562 96.3654 330.941 102.344 363.326C103.218 368.143 99.8492 371.466 94.7596 370.669L94.7668 370.662Z" stroke="#BDB7CB" stroke-width="1.5" stroke-miterlimit="10"/>
<path d="M175.52 464.374C155.226 460.268 134.932 455.093 114.638 448.841C110.158 447.441 104.932 442.446 103.133 437.809C91.1038 406.45 82.3153 375.091 76.7598 343.731C75.9282 339.095 79.6343 335.757 84.896 336.288C108.588 338.75 132.287 340.796 155.978 342.411C161.24 342.762 165.885 347.248 166.358 352.409C169.598 387.142 174.738 421.875 181.756 456.607C182.781 461.768 180 465.292 175.512 464.381L175.52 464.374Z" stroke="#BDB7CB" stroke-width="1.5" stroke-miterlimit="10"/>
<path d="M576.064 273.462C551.763 273.993 527.455 274.453 503.154 274.847C497.763 274.948 493.455 271.093 493.477 266.291C493.677 234.006 490.946 201.714 485.283 169.429C484.452 164.627 487.892 161.289 493.011 162.043C516.143 165.409 539.283 169.35 562.416 173.872C567.534 174.891 572.846 179.09 574.072 183.16C582.33 210.708 586.323 238.263 586.029 265.811C585.986 269.88 581.434 273.326 576.05 273.455L576.064 273.462Z" stroke="#BDB7CB" stroke-width="1.5" stroke-miterlimit="10"/>
<path d="M472.752 410.85C450.903 415.472 429.054 419.262 407.204 422.205C402.373 422.865 399.046 419.104 399.77 413.9C404.709 378.866 407.928 343.832 409.426 308.805C409.649 303.601 414.172 299.237 419.541 299.101C443.735 298.433 467.928 297.579 492.122 296.531C497.491 296.308 501.627 299.976 501.226 304.699C498.552 336.582 492.817 368.466 484.014 400.349C482.695 405.065 477.591 409.823 472.76 410.857L472.752 410.85Z" stroke="#BDB7CB" stroke-width="1.5" stroke-miterlimit="10"/>
<path d="M524.968 327.431C510.502 328.96 496.043 330.345 481.577 331.587C476.308 332.053 472.452 328.393 472.932 323.498C475.004 302.539 476 281.587 475.921 260.628C475.907 255.726 480.23 251.778 485.62 251.864C500.394 252.065 515.169 252.295 529.936 252.539C535.319 252.647 539.842 256.379 539.871 260.837C539.979 279.979 538.638 299.122 535.842 318.272C535.183 322.73 530.244 326.864 524.975 327.431H524.968Z" stroke="#BDB7CB" stroke-width="1.5" stroke-miterlimit="10"/>
<path d="M516.201 194.307C501.771 192.756 487.34 191.35 472.91 190.101C467.642 189.656 462.882 185.263 462.265 180.31C459.584 159.158 455.871 137.998 451.125 116.845C450.029 111.9 453.011 108.591 457.821 109.567C471.047 112.201 484.272 115.151 497.498 118.424C502.308 119.63 507.577 124.36 509.104 128.882C515.577 148.298 520.645 167.706 524.308 187.122C525.168 191.644 521.477 194.867 516.208 194.314L516.201 194.307Z" stroke="#BDB7CB" stroke-width="1.5" stroke-miterlimit="10"/>
<path d="M340.337 236.82C325.592 236.712 310.853 236.655 296.108 236.648C290.724 236.648 286.33 232.226 286.344 226.814C286.38 203.645 286.452 180.475 286.552 157.299C286.581 151.887 290.803 147.444 295.928 147.458C309.993 147.494 324.05 147.752 338.115 148.219C343.233 148.391 347.656 152.949 347.907 158.303C348.946 181.258 349.642 204.205 350 227.159C350.086 232.513 345.728 236.863 340.351 236.827L340.337 236.82Z" stroke="#BDB7CB" stroke-width="1.5" stroke-miterlimit="10"/>
<path d="M434.036 181.674C432.215 181.538 430.402 181.408 428.581 181.279C426.323 181.121 424.308 179.19 424.1 176.98C423.771 173.47 423.412 169.953 423.04 166.443C422.803 164.232 424.423 162.581 426.652 162.782C428.445 162.94 430.237 163.098 432.029 163.263C434.251 163.471 436.301 165.424 436.559 167.606C436.975 171.08 437.362 174.547 437.735 178.021C437.964 180.203 436.301 181.846 434.036 181.681V181.674Z" stroke="#BDB7CB" stroke-width="1.5" stroke-miterlimit="10"/>
<path d="M436.029 205.533C434.186 205.439 432.344 205.346 430.502 205.253C428.208 205.138 426.222 203.243 426.072 201.032C425.828 197.522 425.57 194.005 425.29 190.495C425.111 188.285 426.817 186.598 429.082 186.749C430.91 186.871 432.731 186.993 434.552 187.115C436.817 187.273 438.846 189.189 439.039 191.364C439.348 194.838 439.634 198.305 439.9 201.779C440.064 203.961 438.323 205.647 436.029 205.533Z" stroke="#BDB7CB" stroke-width="1.5" stroke-miterlimit="10"/>
<path d="M421.899 361.388C420.107 361.539 418.308 361.683 416.516 361.826C414.287 362.006 412.638 360.319 412.853 358.094C413.19 354.548 413.505 351.009 413.806 347.464C413.993 345.239 415.993 343.301 418.251 343.157C420.072 343.042 421.892 342.927 423.713 342.805C425.978 342.655 427.663 344.334 427.455 346.531C427.125 350.033 426.767 353.536 426.394 357.039C426.158 359.242 424.129 361.195 421.899 361.381V361.388Z" stroke="#BDB7CB" stroke-width="1.5" stroke-miterlimit="10"/>
<path d="M418.989 385.469C417.233 385.656 415.477 385.836 413.728 386.008C411.549 386.23 409.986 384.579 410.251 382.354C410.674 378.809 411.075 375.27 411.462 371.724C411.706 369.499 413.706 367.525 415.936 367.339C417.721 367.188 419.513 367.037 421.298 366.879C423.52 366.686 425.126 368.322 424.853 370.526C424.423 374.028 423.979 377.531 423.505 381.034C423.204 383.237 421.176 385.233 418.997 385.462L418.989 385.469Z" stroke="#BDB7CB" stroke-width="1.5" stroke-miterlimit="10"/>
<path d="M403.885 479.167C402.372 479.497 400.86 479.827 399.347 480.15C397.469 480.552 396.337 479.045 396.824 476.82C397.598 473.281 398.358 469.75 399.097 466.211C399.555 463.986 401.527 461.883 403.484 461.517C405.053 461.223 406.623 460.928 408.2 460.62C410.157 460.239 411.34 461.718 410.824 463.914C410.007 467.41 409.168 470.905 408.301 474.401C407.756 476.597 405.763 478.743 403.885 479.16V479.167Z" stroke="#BDB7CB" stroke-width="1.5" stroke-miterlimit="10"/>
<path d="M339.942 88.027C338.287 87.9265 336.631 87.8332 334.975 87.7399C332.91 87.625 331.118 85.6512 330.989 83.3328C330.774 79.6435 330.552 75.9613 330.322 72.272C330.179 69.9536 331.692 68.152 333.692 68.274C335.297 68.3745 336.903 68.4822 338.509 68.5899C340.502 68.7262 342.294 70.7432 342.487 73.0472C342.788 76.7222 343.082 80.3899 343.362 84.0649C343.541 86.3761 342 88.149 339.935 88.027H339.942Z" stroke="#BDB7CB" stroke-width="1.5" stroke-miterlimit="10"/>
<path d="M190.961 317.992C189.111 317.935 187.269 317.87 185.419 317.806C183.125 317.727 181.154 315.817 181.054 313.571C180.896 309.996 180.753 306.422 180.631 302.847C180.552 300.601 182.387 298.806 184.695 298.856C186.552 298.9 188.416 298.943 190.272 298.979C192.581 299.029 194.523 300.924 194.595 303.192C194.703 306.795 194.832 310.405 194.968 314.009C195.054 316.277 193.255 318.071 190.961 317.992Z" stroke="#BDB7CB" stroke-width="1.5" stroke-miterlimit="10"/>
<path d="M511.04 401.404C509.362 401.835 507.678 402.258 506 402.674C503.914 403.198 502.746 402 503.384 400.033C504.409 396.896 505.391 393.767 506.344 390.63C506.939 388.656 509.169 386.675 511.312 386.223C513.032 385.857 514.753 385.477 516.48 385.103C518.624 384.637 519.871 385.821 519.233 387.745C518.222 390.81 517.176 393.875 516.093 396.932C515.412 398.856 513.126 400.873 511.04 401.411V401.404Z" stroke="#BDB7CB" stroke-width="1.5" stroke-miterlimit="10"/>
<path d="M118.48 364.676C116.695 364.46 114.918 364.238 113.133 364.015C110.918 363.736 108.803 361.798 108.452 359.709C107.892 356.386 107.362 353.07 106.86 349.746C106.545 347.658 108.136 346.143 110.387 346.373C112.194 346.559 114.007 346.739 115.821 346.918C118.072 347.141 120.143 349.05 120.43 351.175C120.896 354.548 121.383 357.929 121.907 361.302C122.229 363.427 120.695 364.949 118.48 364.676Z" stroke="#BDB7CB" stroke-width="1.5" stroke-miterlimit="10"/>
<path d="M102.982 226.032C101.125 226.118 99.2688 226.197 97.4122 226.283C95.1039 226.384 93.3261 224.79 93.4839 222.723C93.7276 219.436 94.0071 216.148 94.3082 212.861C94.5018 210.801 96.5448 208.978 98.8387 208.82C100.681 208.691 102.523 208.569 104.366 208.447C106.659 208.289 108.373 209.889 108.194 211.992C107.907 215.337 107.656 218.682 107.427 222.027C107.283 224.13 105.29 225.931 102.982 226.032Z" stroke="#BDB7CB" stroke-width="1.5" stroke-miterlimit="10"/>
<path d="M431.29 157.27C429.505 157.098 427.728 156.925 425.943 156.76C423.728 156.552 421.699 154.585 421.434 152.375C421.004 148.865 420.552 145.348 420.086 141.838C419.792 139.627 421.319 138.012 423.491 138.256C425.24 138.45 426.989 138.651 428.738 138.859C430.91 139.118 432.968 141.113 433.297 143.295C433.814 146.769 434.315 150.236 434.789 153.71C435.09 155.892 433.505 157.492 431.29 157.277V157.27Z" stroke="#BDB7CB" stroke-width="1.5" stroke-miterlimit="10"/>
<path d="M114.158 95.2477C115.211 91.9818 116.301 88.716 117.419 85.4502C118.122 83.3973 120.322 81.2656 122.279 80.7201C123.857 80.2822 125.441 79.8516 127.018 79.4281C128.982 78.8969 130.036 80.1817 129.383 82.2776C128.344 85.6009 127.333 88.9242 126.344 92.2474C125.727 94.3361 123.577 96.432 121.541 96.9057C119.907 97.2933 118.279 97.6809 116.645 98.0757C114.616 98.5638 113.484 97.3005 114.15 95.2477H114.158Z" stroke="#BDB7CB" stroke-width="1.5" stroke-miterlimit="10"/>
<path d="M98.3583 99.4538C99.5053 96.2669 100.688 93.0872 101.907 89.9003C102.674 87.9049 104.925 85.7659 106.882 85.1702C108.459 84.6965 110.043 84.2227 111.62 83.7562C113.584 83.1748 114.588 84.3807 113.871 86.4263C112.731 89.6706 111.62 92.9221 110.545 96.1664C109.871 98.212 107.67 100.301 105.641 100.818C104.007 101.241 102.38 101.664 100.745 102.095C98.7167 102.626 97.6271 101.442 98.3583 99.4394V99.4538Z" stroke="#BDB7CB" stroke-width="1.5" stroke-miterlimit="10"/>
<path d="M130.316 91.3143C131.276 87.9695 132.265 84.6319 133.276 81.2871C133.914 79.1912 136.058 77.0523 138.022 76.557C139.599 76.1623 141.183 75.7675 142.76 75.3871C144.724 74.9062 145.835 76.2699 145.248 78.4089C144.308 81.8039 143.398 85.1989 142.509 88.594C141.957 90.7329 139.85 92.8216 137.814 93.2523C136.179 93.604 134.552 93.9557 132.918 94.3146C130.889 94.7596 129.706 93.4174 130.316 91.3143Z" stroke="#BDB7CB" stroke-width="1.5" stroke-miterlimit="10"/>
<path d="M281.534 490.041C281.455 486.337 281.376 482.626 281.298 478.923C281.247 476.59 282.796 474.717 284.746 474.745C286.308 474.767 287.871 474.781 289.434 474.788C291.376 474.796 292.968 476.705 292.961 479.03C292.961 482.741 292.946 486.445 292.946 490.156C292.946 492.489 291.405 494.398 289.541 494.383C288.036 494.376 286.531 494.362 285.032 494.34C283.169 494.312 281.591 492.374 281.541 490.041H281.534Z" stroke="#BDB7CB" stroke-width="1.5" stroke-miterlimit="10"/>
<path d="M266.753 489.524C266.559 485.828 266.373 482.131 266.194 478.435C266.079 476.109 267.577 474.279 269.52 474.358C271.083 474.415 272.645 474.473 274.208 474.523C276.151 474.58 277.792 476.525 277.857 478.851C277.957 482.555 278.057 486.258 278.165 489.962C278.23 492.287 276.753 494.154 274.889 494.089C273.384 494.039 271.878 493.974 270.38 493.91C268.516 493.824 266.882 491.842 266.76 489.524H266.753Z" stroke="#BDB7CB" stroke-width="1.5" stroke-miterlimit="10"/>
<path d="M296.659 490.134C296.695 486.423 296.724 482.72 296.76 479.009C296.774 476.676 298.387 474.76 300.33 474.731C301.892 474.709 303.455 474.681 305.018 474.645C306.96 474.602 308.494 476.461 308.423 478.786C308.308 482.49 308.193 486.194 308.071 489.897C307.993 492.223 306.401 494.182 304.53 494.225C303.025 494.261 301.519 494.29 300.021 494.319C298.157 494.347 296.645 492.453 296.659 490.127V490.134Z" stroke="#BDB7CB" stroke-width="1.5" stroke-miterlimit="10"/>
<path d="M231.685 177.676C231.62 179.413 230.179 180.863 228.473 180.92C226.767 180.978 225.441 179.614 225.52 177.877C225.599 176.147 227.04 174.69 228.739 174.633C230.437 174.575 231.756 175.939 231.692 177.676H231.685Z" fill="#702DFF"/>
<path d="M264.194 300.766C264.208 302.517 262.81 303.931 261.068 303.917C259.326 303.903 257.9 302.474 257.885 300.723C257.871 298.971 259.269 297.565 261.011 297.572C262.753 297.586 264.179 299.015 264.194 300.766Z" fill="#702DFF"/>
<path d="M194.616 405.065C194.817 406.766 193.677 408.022 192.071 407.857C190.466 407.692 188.989 406.184 188.774 404.49C188.559 402.796 189.706 401.555 191.333 401.705C192.953 401.863 194.423 403.363 194.623 405.065H194.616Z" fill="#702DFF"/>
<path d="M374.337 415.91C374.158 417.626 372.717 419.133 371.133 419.276C369.548 419.413 368.394 418.128 368.566 416.405C368.731 414.683 370.165 413.183 371.771 413.053C373.376 412.924 374.53 414.202 374.344 415.917L374.337 415.91Z" fill="#702DFF"/>
<path d="M289.706 111.9C289.706 113.658 288.394 115.087 286.782 115.094C285.169 115.101 283.878 113.687 283.893 111.936C283.914 110.177 285.219 108.742 286.817 108.735C288.416 108.727 289.706 110.149 289.706 111.907V111.9Z" fill="#702DFF"/>
<path d="M416.932 224.84C416.997 226.52 415.635 227.841 413.885 227.798C412.144 227.755 410.688 226.355 410.624 224.661C410.566 222.974 411.921 221.646 413.656 221.704C415.398 221.754 416.86 223.161 416.925 224.84H416.932Z" fill="#702DFF"/>
<path d="M38.2581 257.879C38.2366 259.315 36.81 260.485 35.0609 260.492C33.3118 260.492 31.8996 259.358 31.9211 257.937C31.9426 256.515 33.3907 255.346 35.1398 255.324C36.8889 255.295 38.2796 256.444 38.2652 257.879H38.2581Z" fill="#702DFF"/>
<path d="M72.8604 386.187C73.3048 387.666 72.3729 388.57 70.7672 388.211C69.1615 387.852 67.4769 386.374 67.0181 384.917C66.5593 383.46 67.5056 382.555 69.1256 382.9C70.7457 383.244 72.416 384.716 72.8604 386.187Z" fill="#702DFF"/>
<path d="M528.316 353.622C527.971 355.072 526.323 356.479 524.652 356.752C522.982 357.024 521.914 356.055 522.251 354.584C522.588 353.113 524.215 351.713 525.893 351.462C527.57 351.203 528.66 352.172 528.316 353.622Z" fill="#702DFF"/>
<path d="M464.065 110.83C464.487 112.402 463.541 113.422 461.964 113.106C460.387 112.797 458.796 111.261 458.387 109.675C457.986 108.089 458.91 107.062 460.473 107.385C462.029 107.708 463.642 109.251 464.065 110.83Z" fill="#702DFF"/>
<path d="M276.029 44.681C275.979 46.4395 274.753 47.8965 273.298 47.9396C271.842 47.9899 270.717 46.6117 270.796 44.8604C270.868 43.109 272.093 41.6376 273.527 41.5874C274.961 41.5371 276.086 42.9296 276.029 44.681Z" fill="#702DFF"/>
<path d="M260 93.6758C259.871 96.633 257.613 99.1021 254.939 99.2169C252.273 99.3318 250.244 97.0493 250.423 94.0993C250.595 91.1493 252.868 88.6514 255.491 88.5294C258.115 88.4074 260.129 90.7186 260 93.6758Z" fill="#702DFF"/>
<path d="M186.645 204.176C186.509 207.047 184.036 209.452 181.111 209.559C178.186 209.66 175.928 207.442 176.086 204.592C176.244 201.743 178.738 199.331 181.641 199.202C184.552 199.073 186.781 201.305 186.638 204.176H186.645Z" fill="#702DFF"/>
<path d="M101.592 322.686C101.871 325.342 99.7637 327.302 96.8676 327.058C93.9715 326.814 91.3622 324.495 91.0611 321.883C90.7672 319.27 92.9106 317.325 95.8282 317.526C98.7457 317.727 101.312 320.038 101.592 322.686Z" fill="#702DFF"/>
<path d="M152.358 458.043C153.118 460.778 151.771 462.5 149.326 461.869C146.882 461.237 144.222 458.524 143.405 455.825C142.588 453.126 143.971 451.44 146.473 452.035C148.975 452.631 151.599 455.308 152.358 458.043Z" fill="#702DFF"/>
<path d="M228.473 504.999C228.903 507.906 227.426 509.995 225.161 509.622C222.896 509.256 220.645 506.586 220.143 503.693C219.641 500.8 221.14 498.762 223.477 499.114C225.813 499.465 228.043 502.085 228.473 504.999Z" fill="#702DFF"/>
<path d="M291.713 429.318C291.713 432.282 289.577 434.687 286.939 434.672C284.308 434.658 282.129 432.225 282.086 429.26C282.043 426.296 284.179 423.92 286.86 423.935C289.541 423.949 291.713 426.354 291.713 429.318Z" fill="#702DFF"/>
<path d="M413.405 332.032C413.211 334.867 410.695 337.3 407.806 337.451C404.917 337.609 402.731 335.405 402.903 332.549C403.075 329.692 405.563 327.266 408.473 327.137C411.383 327.007 413.598 329.197 413.405 332.032Z" fill="#702DFF"/>
<path d="M442.136 453.076C441.326 455.768 438.66 458.481 436.201 459.105C433.742 459.73 432.38 458 433.133 455.272C433.886 452.538 436.516 449.868 439.033 449.279C441.549 448.69 442.947 450.384 442.136 453.083V453.076Z" fill="#702DFF"/>
<path d="M496.53 214.289C496.781 216.895 494.588 218.862 491.656 218.696C488.724 218.531 486.186 216.256 485.95 213.607C485.713 210.959 487.871 208.978 490.781 209.186C493.692 209.394 496.28 211.677 496.53 214.282V214.289Z" fill="#702DFF"/>
<path d="M32.688 198.412C32.222 200.788 29.5339 202.984 26.6378 203.322C23.7418 203.659 21.7561 202.058 22.2436 199.74C22.7238 197.422 25.4765 195.211 28.3511 194.816C31.2256 194.421 33.1539 196.036 32.688 198.412Z" fill="#702DFF"/>
<path d="M589.985 236.023C590.222 238.234 587.993 239.899 585.046 239.756C582.1 239.612 579.562 237.653 579.333 235.377C579.111 233.109 581.276 231.429 584.215 231.645C587.147 231.853 589.756 233.82 589.985 236.023Z" fill="#702DFF"/>
</g>
<defs>
<clipPath id="clip0_95_3278">
<rect width="590" height="514" fill="white"/>
</clipPath>
</defs>
</svg>
